<?xml version="1.0" encoding="iso-8859-1"?>
<!-- Uploaded to: SVG Repo, www.svgrepo.com, Generator: SVG Repo Mixer Tools -->
<svg fill="#942637" height="800px" width="800px" version="1.1" id="Layer_1" xmlns="http://www.w3.org/2000/svg" xmlns:xlink="http://www.w3.org/1999/xlink" 
	 viewBox="0 0 512 512" xml:space="preserve">
<g>
	<g>
		<path d="M477.091,221.087c-15.151,0-27.951,9.763-32.768,23.273H384c-6.423,0-11.636,5.201-11.636,11.636
			c0,28.137-10.042,53.958-26.717,74.1c-7.924-22.737-29.347-39.191-54.737-39.191h-69.818c-25.449,0-46.895,16.524-54.772,39.331
			c-7.727-9.391-14.127-20.084-18.746-31.907c-2.339-5.981-9.088-8.96-15.069-6.598c-5.993,2.339-8.948,9.088-6.609,15.081
			c10.17,26.019,27.357,47.534,48.873,62.906l-28.8,49.885c-5.05-0.931-10.252-0.873-15.348,0.5
			c-9.007,2.42-16.535,8.192-21.201,16.268c-4.666,8.064-5.9,17.478-3.491,26.484c2.409,9.007,8.192,16.535,16.256,21.19
			c5.376,3.107,11.357,4.689,17.408,4.689c3.037,0,6.086-0.396,9.088-1.21c9.007-2.409,16.535-8.18,21.201-16.256
			c7.575-13.126,5.516-29.079-3.77-40.017l28.637-49.606c18.618,9.041,39.447,13.987,61.254,13.987
			c21.923,0,42.647-5.167,61.126-14.208l28.777,49.839c-9.286,10.938-11.345,26.892-3.77,40.017
			c4.655,8.076,12.183,13.847,21.19,16.256c3.002,0.803,6.063,1.21,9.088,1.21c6.051,0,12.02-1.594,17.396-4.689
			c8.076-4.655,13.859-12.183,16.268-21.19c2.409-9.007,1.175-18.42-3.491-26.484c-4.666-8.076-12.195-13.847-21.201-16.268
			c-5.097-1.373-10.31-1.431-15.348-0.5l-28.951-50.141c32.407-23.238,54.586-59.869,58.065-101.818h49.175
			c4.818,13.51,17.617,23.273,32.768,23.273c19.247,0,34.909-15.663,34.909-34.909C512,236.773,496.337,221.087,477.091,221.087z
			 M149.725,459.632c-1.559,2.688-4.073,4.608-7.063,5.423c-2.991,0.78-6.132,0.372-8.832-1.175
			c-2.688-1.559-4.608-4.061-5.423-7.052c-0.815-3.014-0.407-6.144,1.152-8.832s4.073-4.62,7.075-5.434
			c1.001-0.256,2.025-0.396,3.026-0.396c2.013,0,4.003,0.535,5.795,1.571C151.017,446.937,152.925,454.07,149.725,459.632z
			 M256,372.36c-25.937,0-50.188-8.448-69.841-23.18c0-0.035,0.023-0.058,0.023-0.093c0-19.247,15.663-34.909,34.909-34.909h69.818
			c19.177,0,34.769,15.546,34.886,34.7C306.327,363.551,282.205,372.36,256,372.36z M366.545,443.737
			c1.792-1.036,3.782-1.571,5.795-1.571c1.001,0,2.025,0.14,3.025,0.396c3.002,0.803,5.516,2.735,7.075,5.434
			c1.548,2.688,1.955,5.818,1.164,8.832c-0.803,3.002-2.735,5.504-5.434,7.052c-2.688,1.571-5.83,1.955-8.82,1.175
			c-3.002-0.803-5.516-2.723-7.063-5.423C359.075,454.07,360.995,446.937,366.545,443.737z M477.091,267.632
			c-6.412,0-11.636-5.213-11.636-11.636s5.225-11.636,11.636-11.636s11.636,5.213,11.636,11.636S483.503,267.632,477.091,267.632z"
			/>
	</g>
</g>
<g>
	<g>
		<path d="M267.636,162.905h-23.273c-19.247,0-34.909,15.663-34.909,34.909v34.909c0,25.67,20.876,46.545,46.545,46.545
			s46.545-20.876,46.545-46.545v-34.909C302.545,178.568,286.883,162.905,267.636,162.905z M279.273,232.723
			c0,12.835-10.438,23.273-23.273,23.273s-23.273-10.438-23.273-23.273v-34.909c0-6.423,5.225-11.636,11.636-11.636h23.273
			c6.412,0,11.636,5.213,11.636,11.636V232.723z"/>
	</g>
</g>
<g>
	<g>
		<path d="M389.807,27.935c-16.675-9.588-38.063-3.875-47.686,12.788c-7.575,13.114-5.516,29.079,3.77,40.017l-28.637,49.606
			c-18.63-9.041-39.447-13.987-61.254-13.987c-21.923,0-42.647,5.167-61.126,14.208l-28.765-49.839
			c9.286-10.938,11.345-26.892,3.77-40.017c-4.655-8.076-12.183-13.847-21.19-16.256c-8.995-2.409-18.42-1.175-26.484,3.491
			c-8.076,4.655-13.859,12.183-16.268,21.19c-2.409,9.007-1.199,18.432,3.468,26.496c4.666,8.076,12.195,13.847,21.201,16.268
			c3.002,0.803,6.063,1.21,9.088,1.21c2.095,0,4.143-0.442,6.202-0.815l29.009,50.257c-32.407,23.238-54.586,59.869-58.065,101.818
			H67.677c-4.817-13.533-17.617-23.284-32.768-23.284C15.663,221.087,0,236.75,0,255.996s15.663,34.909,34.909,34.909
			c15.151,0,27.951-9.763,32.768-23.273H128c6.423,0,11.636-5.201,11.636-11.636c0-64.163,52.201-116.364,116.364-116.364
			c48.291,0,90.857,29.056,108.428,74.031c2.339,5.981,9.088,8.972,15.069,6.598c5.993-2.339,8.948-9.088,6.609-15.081
			c-10.17-26.019-27.357-47.535-48.873-62.906l28.881-50.001c2.06,0.372,4.119,0.803,6.179,0.803
			c12.079,0,23.843-6.26,30.301-17.443C412.207,58.958,406.47,37.57,389.807,27.935z M145.455,68.255
			c-2.676,1.559-5.807,1.955-8.82,1.175c-3.002-0.803-5.516-2.735-7.075-5.434s-1.967-5.818-1.164-8.832
			c0.803-3.002,2.735-5.504,5.434-7.052c1.792-1.047,3.782-1.571,5.795-1.571c1.012,0,2.025,0.14,3.025,0.396
			c3.002,0.803,5.516,2.723,7.063,5.423C152.925,57.922,151.005,65.055,145.455,68.255z M34.909,267.632
			c-6.412,0-11.636-5.213-11.636-11.636s5.225-11.636,11.636-11.636c6.412,0,11.636,5.213,11.636,11.636
			S41.321,267.632,34.909,267.632z M382.441,63.996c-3.212,5.551-10.345,7.482-15.895,4.259c-5.562-3.2-7.471-10.345-4.259-15.895
			c3.2-5.562,10.333-7.494,15.884-4.259C383.732,51.301,385.652,58.446,382.441,63.996z"/>
	</g>
</g>
</svg>