<?xml version="1.0" encoding="iso-8859-1"?>
<!-- Uploaded to: SVG Repo, www.svgrepo.com, Generator: SVG Repo Mixer Tools -->
<svg fill="#942637" height="800px" width="800px" version="1.1" id="Layer_1" xmlns="http://www.w3.org/2000/svg" xmlns:xlink="http://www.w3.org/1999/xlink" 
	 viewBox="0 0 500.944 500.944" xml:space="preserve">
<g>
	<g>
		<g>
			<path d="M272,370.472h-48c-22.056,0-40,17.944-40,40v48c0,22.056,17.944,40,40,40h48c22.056,0,40-17.944,40-40v-48
				C312,388.416,294.056,370.472,272,370.472z M296,458.472c0,13.232-10.768,24-24,24h-48c-13.232,0-24-10.768-24-24v-48
				c0-13.232,10.768-24,24-24h48c13.232,0,24,10.768,24,24V458.472z"/>
			<path d="M248,130.472c35.288,0,64-28.712,64-64s-28.712-64-64-64c-35.288,0-64,28.712-64,64S212.712,130.472,248,130.472z
				 M248,18.472c26.472,0,48,21.528,48,48s-21.528,48-48,48s-48-21.528-48-48S221.528,18.472,248,18.472z"/>
			<path d="M128,186.472H0v128h128V186.472z M112,298.472H16v-96h96V298.472z"/>
			<path d="M500.944,314.472L432,176.584l-68.944,137.888H500.944z M475.056,298.472h-86.112L432,212.36L475.056,298.472z"/>
			<path d="M412.752,168.552l14.328-7.144c-20.448-41.016-54.672-74.056-96.376-93.024l-6.624,14.56
				C362.456,100.4,393.944,130.808,412.752,168.552z"/>
			<path d="M171.92,82.952l-6.624-14.56c-43.824,19.928-79.008,55-99.104,98.752l14.544,6.672
				C99.216,133.56,131.6,101.296,171.92,82.952z"/>
			<path d="M324.664,417.728l6.672,14.544c43.512-19.984,78.488-54.952,98.472-98.472l-14.544-6.672
				C396.872,367.176,364.704,399.344,324.664,417.728z"/>
			<path d="M80.744,327.136L66.2,333.808c19.984,43.512,54.952,78.488,98.472,98.472l6.672-14.544
				C131.296,399.344,99.128,367.176,80.744,327.136z"/>
			<path d="M248,218.472c-17.648,0-32,14.352-32,32s14.352,32,32,32s32-14.352,32-32S265.648,218.472,248,218.472z M248,266.472
				c-8.824,0-16-7.176-16-16c0-8.824,7.176-16,16-16c8.824,0,16,7.176,16,16C264,259.296,256.824,266.472,248,266.472z"/>
			<path d="M336,258.472v-16h-16.472c-1.544-13.864-7.04-26.528-15.328-36.888l11.68-11.68l-11.312-11.312l-11.68,11.68
				c-10.36-8.288-23.024-13.784-36.888-15.328v-16.472h-16v16.472c-13.864,1.544-26.528,7.04-36.888,15.328l-11.68-11.68
				l-11.312,11.312l11.68,11.68c-8.288,10.36-13.784,23.024-15.328,36.888H160v16h16.472c1.544,13.864,7.04,26.528,15.328,36.888
				l-11.68,11.68l11.312,11.312l11.68-11.68C213.472,314.96,226.136,320.456,240,322v16.472h16V322
				c13.864-1.544,26.528-7.04,36.888-15.328l11.68,11.68l11.312-11.312l-11.68-11.68c8.288-10.36,13.784-23.024,15.328-36.888H336z
				 M248,306.472c-30.872,0-56-25.128-56-56s25.128-56,56-56s56,25.128,56,56S278.872,306.472,248,306.472z"/>
		</g>
	</g>
</g>
</svg>