<?xml version="1.0" encoding="iso-8859-1"?>
<!-- Uploaded to: SVG Repo, www.svgrepo.com, Generator: SVG Repo Mixer Tools -->
<!DOCTYPE svg PUBLIC "-//W3C//DTD SVG 1.1//EN" "http://www.w3.org/Graphics/SVG/1.1/DTD/svg11.dtd">
<svg fill="#942637" height="800px" width="800px" version="1.1" id="Capa_1" xmlns="http://www.w3.org/2000/svg" xmlns:xlink="http://www.w3.org/1999/xlink" 
	 viewBox="0 0 364.272 364.272" xml:space="preserve">
<path d="M92.443,116.513c20.693,0,37.528-16.835,37.528-37.528c0-20.694-16.835-37.529-37.528-37.529
	c-20.694,0-37.529,16.835-37.529,37.529C54.914,99.678,71.75,116.513,92.443,116.513z M92.443,59.456
	c10.768,0,19.528,8.761,19.528,19.529c0,10.768-8.76,19.528-19.528,19.528c-10.769,0-19.529-8.76-19.529-19.528
	C72.914,68.216,81.675,59.456,92.443,59.456z M190.268,266.424v47.393c0,4.971-4.029,9-9,9H40.138c-4.971,0-9-4.029-9-9v-10.525
	c0-4.971,4.029-9,9-9s9,4.029,9,9v1.525h123.13v-29.393H76.214c-4.971,0-9-4.029-9-9s4.029-9,9-9h105.054
	C186.239,257.424,190.268,261.454,190.268,266.424z M355.272,218.525h-83.872v-21.777h65.837c4.971,0,9-4.029,9-9v-98
	c0-4.971-4.029-9-9-9H187.564c-4.971,0-9,4.029-9,9v98c0,4.971,4.029,9,9,9h65.837v21.777H48.281l1.04-34.748
	c0.311-10.396,3.755-34.604,28.951-34.86c0.159-0.001,0.317-0.007,0.474-0.017c0.197,0.013,0.396,0.02,0.597,0.02h27.362
	c0.025,0,0.051,0,0.077,0c25.044,0.36,28.473,24.485,28.784,34.859c0.149,4.968,4.297,8.868,9.266,8.727
	c4.969-0.149,8.875-4.297,8.727-9.266c-0.945-31.505-19.3-52.042-46.761-52.321c-0.095-0.002-0.188,0-0.283,0.001H79.343
	c-0.189,0-0.378,0.006-0.565,0.018c-0.228-0.015-0.458-0.022-0.688-0.019c-27.463,0.279-45.817,20.816-46.76,52.321l-1.056,35.286H9
	c-4.971,0-9,4.029-9,9s4.029,9,9,9h20.734l-0.519,17.326c-0.148,4.968,3.758,9.116,8.727,9.265c0.092,0.002,0.183,0.004,0.274,0.004
	c4.846,0,8.845-3.854,8.991-8.731l0.535-17.864h214.472c0.123,0.003,0.249,0.003,0.372,0h92.686c4.971,0,9-4.029,9-9
	S360.243,218.525,355.272,218.525z M196.564,178.748v-80h131.674v80H196.564z"/>
</svg>